<svg xmlns="http://www.w3.org/2000/svg" viewBox="0 0 1200 700"
 role="img" aria-labelledby="title-fisicacaloretemperatur desc-fisicacaloretemperatur">
<title id="title-fisicacaloretemperatur">Calor e temperatura</title>
<desc id="desc-fisicacaloretemperatur">Ilustração didática vetorial premium sobre Calor e temperatura, da disciplina Física.</desc>

    <defs>
      <linearGradient id="bg-fisicacaloretemperatur" x1="0" y1="0" x2="1" y2="1">
        <stop offset="0" stop-color="#F2F7FF"/>
        <stop offset="0.55" stop-color="#ffffff"/>
        <stop offset="1" stop-color="#64B5F6" stop-opacity=".16"/>
      </linearGradient>
      <radialGradient id="glow-fisicacaloretemperatur" cx="50%" cy="40%" r="60%">
        <stop offset="0" stop-color="#ffffff" stop-opacity=".96"/>
        <stop offset=".52" stop-color="#64B5F6" stop-opacity=".42"/>
        <stop offset="1" stop-color="#17233F" stop-opacity=".06"/>
      </radialGradient>
      <linearGradient id="metal-fisicacaloretemperatur" x1="0" x2="1">
        <stop offset="0" stop-color="#e8eef5"/>
        <stop offset=".5" stop-color="#ffffff"/>
        <stop offset="1" stop-color="#a9b6c5"/>
      </linearGradient>
      <filter id="shadow-fisicacaloretemperatur" x="-30%" y="-30%" width="160%" height="160%">
        <feDropShadow dx="0" dy="10" stdDeviation="12" flood-color="#17233F" flood-opacity=".22"/>
      </filter>
      <filter id="soft-fisicacaloretemperatur" x="-20%" y="-20%" width="140%" height="140%">
        <feGaussianBlur stdDeviation="8"/>
      </filter>
      <clipPath id="frame-fisicacaloretemperatur">
        <rect x="18" y="18" width="1164" height="664" rx="34"/>
      </clipPath>
    </defs>
<rect width="1200" height="700" rx="36" fill="url(#bg-fisicacaloretemperatur)"/>
<rect x="18" y="18" width="1164" height="664" rx="34" fill="none" stroke="#335D9E" stroke-opacity=".16" stroke-width="2"/>

      <g>
        <rect x="56" y="48" width="168" height="34" rx="17" fill="#335D9E" opacity=".96"/>
        <text x="140" y="71" text-anchor="middle" fill="#fff"
          font-family="Inter,Segoe UI,Arial" font-size="16" font-weight="700">Física</text>
        <text x="56" y="122" fill="#17233F" font-family="Inter,Segoe UI,Arial"
          font-size="34" font-weight="800">Calor e temperatura</text>
        <text x="56" y="151" fill="#335D9E" font-family="Inter,Segoe UI,Arial"
          font-size="17" font-weight="600">Máquinas, calor e temperatura</text>
      </g>
<g opacity=".9"><circle cx="555" cy="405" r="7" fill="#F2994A" opacity=".16"/><circle cx="630" cy="420" r="8" fill="#F2994A" opacity=".16"/><circle cx="639" cy="423" r="8" fill="#F2994A" opacity=".16"/><circle cx="803" cy="507" r="5" fill="#F2994A" opacity=".16"/><circle cx="986" cy="363" r="7" fill="#F2994A" opacity=".16"/><circle cx="1008" cy="327" r="5" fill="#F2994A" opacity=".16"/><circle cx="849" cy="400" r="7" fill="#F2994A" opacity=".16"/><circle cx="829" cy="418" r="5" fill="#F2994A" opacity=".16"/></g>

          <g filter="url(#shadow-fisicacaloretemperatur)">
            <rect x="540" y="270" width="450" height="220" rx="40" fill="#17233F"/>
            <path d="M580 382 C625 260 670 504 715 382 C760 260 805 504 850 382 C895 260 940 504 980 382"
              fill="none" stroke="#64B5F6" stroke-width="12" stroke-linecap="round"/>
            <circle cx="580" cy="382" r="16" fill="#F2994A"/>
            <circle cx="980" cy="382" r="16" fill="#F2994A"/>
            <g fill="#F2994A" opacity=".85">
              <path d="M690 240 C670 200 712 183 698 148 C741 183 750 214 724 244Z"/>
              <path d="M785 240 C765 200 807 183 793 148 C836 183 845 214 819 244Z"/>
            </g>
          </g>
<g>
  <rect x="56" y="205" width="308" height="310" rx="30" fill="#fff" fill-opacity=".88" filter="url(#shadow-fisicacaloretemperatur)"/>
  <text x="84" y="255" fill="#17233F" font-family="Inter,Segoe UI,Arial" font-size="18" font-weight="800">LEITURA VISUAL</text>
  <line x1="84" y1="273" x2="330" y2="273" stroke="#64B5F6" stroke-width="5" stroke-linecap="round"/>
  <text x="84" y="316" fill="#335D9E" font-family="Inter,Segoe UI,Arial" font-size="17" font-weight="700">Observe o modelo</text>
  <text x="84" y="348" fill="#17233F" font-family="Inter,Segoe UI,Arial" font-size="15">
    <tspan x="84" dy="0">• identifique os elementos;</tspan>
    <tspan x="84" dy="28">• relacione causa e efeito;</tspan>
    <tspan x="84" dy="28">• compare com o texto;</tspan>
    <tspan x="84" dy="28">• pense como a ONC.</tspan>
  </text>
  <rect x="84" y="444" width="222" height="42" rx="21" fill="#335D9E"/>
  <text x="195" y="471" text-anchor="middle" fill="#fff"
    font-family="Inter,Segoe UI,Arial" font-size="15" font-weight="800">AMPLIE PARA EXPLORAR</text>
</g>

      <g opacity=".82">
        <line x1="56" y1="632" x2="1144" y2="632" stroke="#335D9E" stroke-opacity=".18"/>
        <text x="56" y="661" fill="#17233F" font-family="Inter,Segoe UI,Arial"
          font-size="14" font-weight="600">Estude ONC • ilustração didática vetorial</text>
        <text x="1144" y="661" text-anchor="end" fill="#335D9E"
          font-family="Inter,Segoe UI,Arial" font-size="13">fisica-calor-e-temperatura</text>
      </g>
</svg>